<?xml version="1.0" encoding="UTF-8"?>
<!DOCTYPE svg PUBLIC "-//W3C//DTD SVG 1.1//EN" "http://www.w3.org/Graphics/SVG/1.1/DTD/svg11.dtd">
<svg xmlns="http://www.w3.org/2000/svg" version="1.1" width="100px" height="100px" viewBox="0 0 100.000000 100.000000" style="shape-rendering:geometricPrecision; text-rendering:geometricPrecision; image-rendering:optimizeQuality; fill-rule:evenodd; clip-rule:evenodd" xmlns:xlink="http://www.w3.org/1999/xlink">
<g><path style="opacity:1" fill="#fefefe" d="M -0.5,-0.5 C 107.833,-0.5 216.167,-0.5 324.5,-0.5C 324.5,107.833 324.5,216.167 324.5,324.5C 216.167,324.5 107.833,324.5 -0.5,324.5C -0.5,216.167 -0.5,107.833 -0.5,-0.5 Z"/></g>
<g><path style="opacity:1" fill="#172964" d="M 303.5,125.5 C 304.502,127.011 305.169,128.678 305.5,130.5C 307.861,130.674 310.194,131.007 312.5,131.5C 310.639,135.039 307.972,138.039 304.5,140.5C 303.614,141.325 303.281,142.325 303.5,143.5C 296.365,149.57 288.699,154.903 280.5,159.5C 279.168,168.308 278.502,177.475 278.5,187C 278.667,196.167 278.833,205.333 279,214.5C 280.612,217.617 282.446,220.617 284.5,223.5C 285.499,234.146 285.832,244.813 285.5,255.5C 284.5,255.5 283.5,255.5 282.5,255.5C 283.383,259.954 282.05,263.454 278.5,266C 274.167,266.667 269.833,266.667 265.5,266C 265.087,262.867 263.587,260.367 261,258.5C 260.333,246.833 260.333,235.167 261,223.5C 261.793,219.705 263.793,216.705 267,214.5C 267.5,199.837 267.667,185.17 267.5,170.5C 263.74,169.774 261.073,171.107 259.5,174.5C 257.763,176.55 255.763,178.383 253.5,180C 251.956,181.187 250.289,181.52 248.5,181C 232.059,160.121 211.059,146.288 185.5,139.5C 182.851,137.891 179.851,137.057 176.5,137C 165.5,136.333 154.5,136.333 143.5,137C 136.129,136.733 129.796,138.899 124.5,143.5C 115.184,146.325 106.517,150.491 98.5,156C 90.7011,161.965 83.3677,168.465 76.5,175.5C 74.1741,176.953 71.6741,178.286 69,179.5C 68.5,178.5 68,177.5 67.5,176.5C 59.4184,171.47 51.7517,165.97 44.5,160C 43.2068,159.51 41.8734,159.343 40.5,159.5C 31.2178,153.548 22.2178,147.215 13.5,140.5C 12.0984,137.535 10.0984,135.035 7.5,133C 7.83333,132.667 8.16667,132.333 8.5,132C 11.4856,132.128 14.4856,132.128 17.5,132C 18.87,130.559 19.87,128.892 20.5,127C 26.3839,123.617 32.3839,120.45 38.5,117.5C 41.2099,116.124 43.2099,114.124 44.5,111.5C 44.8333,111.5 45.1667,111.5 45.5,111.5C 51.0276,111.735 56.0276,110.235 60.5,107C 64.5726,104.063 68.9059,101.563 73.5,99.5C 74.9344,98.4116 75.9344,97.0783 76.5,95.5C 76.8333,95.5 77.1667,95.5 77.5,95.5C 83.0276,95.735 88.0276,94.235 92.5,91C 96.5726,88.0631 100.906,85.5631 105.5,83.5C 106.934,82.4116 107.934,81.0783 108.5,79.5C 108.833,79.5 109.167,79.5 109.5,79.5C 115.028,79.735 120.028,78.235 124.5,75C 128.573,72.0631 132.906,69.5631 137.5,67.5C 138.934,66.4116 139.934,65.0783 140.5,63.5C 146.14,60.6799 151.807,57.8466 157.5,55C 159.5,54.3333 161.5,54.3333 163.5,55C 210.383,78.2745 257.05,101.774 303.5,125.5 Z"/></g>
<g><path style="opacity:1" fill="#1f2a51" d="M 140.5,63.5 C 139.934,65.0783 138.934,66.4116 137.5,67.5C 132.906,69.5631 128.573,72.0631 124.5,75C 120.028,78.235 115.028,79.735 109.5,79.5C 119.642,73.9281 129.975,68.5948 140.5,63.5 Z"/></g>
<g><path style="opacity:1" fill="#1f2a51" d="M 108.5,79.5 C 107.934,81.0783 106.934,82.4116 105.5,83.5C 100.906,85.5631 96.5726,88.0631 92.5,91C 88.0276,94.235 83.0276,95.735 77.5,95.5C 87.6421,89.9281 97.9754,84.5948 108.5,79.5 Z"/></g>
<g><path style="opacity:1" fill="#1f2a51" d="M 76.5,95.5 C 75.9344,97.0783 74.9344,98.4116 73.5,99.5C 68.9059,101.563 64.5726,104.063 60.5,107C 56.0276,110.235 51.0276,111.735 45.5,111.5C 55.6421,105.928 65.9754,100.595 76.5,95.5 Z"/></g>
<g><path style="opacity:1" fill="#1e2956" d="M 44.5,111.5 C 43.2099,114.124 41.2099,116.124 38.5,117.5C 32.3839,120.45 26.3839,123.617 20.5,127C 19.87,128.892 18.87,130.559 17.5,132C 14.4856,132.128 11.4856,132.128 8.5,132C 8.16667,132.333 7.83333,132.667 7.5,133C 10.0984,135.035 12.0984,137.535 13.5,140.5C 9.54441,138.515 5.87775,136.015 2.5,133C 16.3391,125.58 30.3391,118.413 44.5,111.5 Z"/></g>
<g><path style="opacity:1" fill="#1f294e" d="M 303.5,125.5 C 308.788,127.477 313.788,129.977 318.5,133C 313.62,136.72 308.62,140.22 303.5,143.5C 303.281,142.325 303.614,141.325 304.5,140.5C 307.972,138.039 310.639,135.039 312.5,131.5C 310.194,131.007 307.861,130.674 305.5,130.5C 305.169,128.678 304.502,127.011 303.5,125.5 Z"/></g>
<g><path style="opacity:1" fill="#202b4c" d="M 185.5,139.5 C 172.897,137.643 160.231,137.143 147.5,138C 139.539,138.758 131.872,140.591 124.5,143.5C 129.796,138.899 136.129,136.733 143.5,137C 154.5,136.333 165.5,136.333 176.5,137C 179.851,137.057 182.851,137.891 185.5,139.5 Z"/></g>
<g><path style="opacity:1" fill="#172965" d="M 199.5,154.5 C 201.412,157.149 204.079,158.482 207.5,158.5C 207.5,159.5 207.5,160.5 207.5,161.5C 211.536,161.353 214.869,162.853 217.5,166C 219.025,167.009 220.692,167.509 222.5,167.5C 223.167,167.5 223.5,167.833 223.5,168.5C 226.848,173.146 230.681,177.479 235,181.5C 235.685,185.102 237.852,187.269 241.5,188C 242.126,188.75 242.626,189.584 243,190.5C 243.833,206.844 243.666,223.177 242.5,239.5C 240.227,241.663 237.893,241.829 235.5,240C 240.195,236.967 240.528,233.634 236.5,230C 235.207,229.51 233.873,229.343 232.5,229.5C 230.837,227.467 228.837,225.634 226.5,224C 217.147,220.458 207.481,217.791 197.5,216C 168.241,212.903 139.241,214.236 110.5,220C 108.416,220.697 106.749,221.864 105.5,223.5C 105.167,223.5 104.833,223.5 104.5,223.5C 101.5,223.5 98.5,223.5 95.5,223.5C 95.5,224.5 95.5,225.5 95.5,226.5C 91.3089,227.262 87.6422,229.096 84.5,232C 82.7888,233.133 82.2888,234.633 83,236.5C 88.9535,241.382 95.7869,244.549 103.5,246C 105.503,248.002 107.836,249.502 110.5,250.5C 110.154,251.696 109.654,251.696 109,250.5C 108.044,251.894 106.711,252.561 105,252.5C 100.789,250.318 96.2887,248.818 91.5,248C 87.568,244.385 83.4013,241.219 79,238.5C 78.3333,222.833 78.3333,207.167 79,191.5C 80.7066,186.123 84.2066,182.289 89.5,180C 90.4266,177.03 92.4266,175.197 95.5,174.5C 97.9923,171.837 100.326,169.004 102.5,166C 104.955,164.369 107.455,164.203 110,165.5C 111.74,164.284 112.74,162.618 113,160.5C 114.667,161.167 116.333,161.833 118,162.5C 118.317,160.699 118.984,160.366 120,161.5C 120.976,159.113 122.809,157.946 125.5,158C 124.5,157.667 123.5,157.333 122.5,157C 127.494,154.869 132.494,152.869 137.5,151C 146.004,150.443 154.337,148.943 162.5,146.5C 168.085,147.859 173.752,148.692 179.5,149C 185.751,152.154 192.418,153.987 199.5,154.5 Z"/></g>
<g><path style="opacity:1" fill="#202b4b" d="M 199.5,154.5 C 207.942,157.552 215.609,161.885 222.5,167.5C 220.692,167.509 219.025,167.009 217.5,166C 214.869,162.853 211.536,161.353 207.5,161.5C 207.5,160.5 207.5,159.5 207.5,158.5C 204.079,158.482 201.412,157.149 199.5,154.5 Z"/></g>
<g><path style="opacity:1" fill="#202b4d" d="M 40.5,159.5 C 41.8734,159.343 43.2068,159.51 44.5,160C 51.7517,165.97 59.4184,171.47 67.5,176.5C 68,177.5 68.5,178.5 69,179.5C 71.6741,178.286 74.1741,176.953 76.5,175.5C 75.3909,179.13 73.0576,180.963 69.5,181C 59.409,174.3 49.7424,167.133 40.5,159.5 Z"/></g>
<g><path style="opacity:1" fill="#fcfdfd" d="M 232.5,229.5 C 233.458,230.962 234.624,232.295 236,233.5C 236.667,234.167 236.667,234.833 236,235.5C 229.97,239.889 223.47,243.222 216.5,245.5C 216.167,245.5 215.833,245.5 215.5,245.5C 176.609,255.204 137.942,254.37 99.5,243C 94.0018,241.145 89.3352,238.145 85.5,234C 91.3161,229.428 97.6495,225.928 104.5,223.5C 104.833,223.5 105.167,223.5 105.5,223.5C 138.958,215.237 172.625,214.404 206.5,221C 215.469,222.988 224.135,225.822 232.5,229.5 Z"/></g>
<g><path style="opacity:1" fill="#1e294d" d="M 232.5,229.5 C 224.135,225.822 215.469,222.988 206.5,221C 172.625,214.404 138.958,215.237 105.5,223.5C 106.749,221.864 108.416,220.697 110.5,220C 139.241,214.236 168.241,212.903 197.5,216C 207.481,217.791 217.147,220.458 226.5,224C 228.837,225.634 230.837,227.467 232.5,229.5 Z"/></g>
<g><path style="opacity:1" fill="#1e2956" d="M 223.5,168.5 C 232.123,173.956 239.29,180.956 245,189.5C 245.207,204.355 245.707,219.188 246.5,234C 245.458,239.05 242.791,243.05 238.5,246C 231.127,250.627 223.127,253.794 214.5,255.5C 213.637,254.06 213.637,252.726 214.5,251.5C 218.484,251.96 222.484,251.46 226.5,250C 228.863,249.411 229.863,247.911 229.5,245.5C 231.842,245.496 233.842,244.663 235.5,243C 234.892,242.13 234.059,241.63 233,241.5C 227.43,242.711 221.93,244.045 216.5,245.5C 223.47,243.222 229.97,239.889 236,235.5C 236.667,234.833 236.667,234.167 236,233.5C 234.624,232.295 233.458,230.962 232.5,229.5C 233.873,229.343 235.207,229.51 236.5,230C 240.528,233.634 240.195,236.967 235.5,240C 237.893,241.829 240.227,241.663 242.5,239.5C 243.666,223.177 243.833,206.844 243,190.5C 242.626,189.584 242.126,188.75 241.5,188C 237.852,187.269 235.685,185.102 235,181.5C 230.681,177.479 226.848,173.146 223.5,168.5 Z"/></g>
<g><path style="opacity:1" fill="#1e2a51" d="M 199.5,154.5 C 192.418,153.987 185.751,152.154 179.5,149C 173.752,148.692 168.085,147.859 162.5,146.5C 154.337,148.943 146.004,150.443 137.5,151C 132.494,152.869 127.494,154.869 122.5,157C 123.5,157.333 124.5,157.667 125.5,158C 122.809,157.946 120.976,159.113 120,161.5C 118.984,160.366 118.317,160.699 118,162.5C 116.333,161.833 114.667,161.167 113,160.5C 112.74,162.618 111.74,164.284 110,165.5C 107.455,164.203 104.955,164.369 102.5,166C 100.326,169.004 97.9923,171.837 95.5,174.5C 92.4266,175.197 90.4266,177.03 89.5,180C 84.2066,182.289 80.7066,186.123 79,191.5C 78.3333,207.167 78.3333,222.833 79,238.5C 83.4013,241.219 87.568,244.385 91.5,248C 96.2887,248.818 100.789,250.318 105,252.5C 106.711,252.561 108.044,251.894 109,250.5C 109.654,251.696 110.154,251.696 110.5,250.5C 107.836,249.502 105.503,248.002 103.5,246C 95.7869,244.549 88.9535,241.382 83,236.5C 82.2888,234.633 82.7888,233.133 84.5,232C 87.6422,229.096 91.3089,227.262 95.5,226.5C 95.5,225.5 95.5,224.5 95.5,223.5C 98.5,223.5 101.5,223.5 104.5,223.5C 97.6495,225.928 91.3161,229.428 85.5,234C 89.3352,238.145 94.0018,241.145 99.5,243C 137.942,254.37 176.609,255.204 215.5,245.5C 214.571,246.315 213.571,247.148 212.5,248C 206.249,249.651 200.082,251.484 194,253.5C 192.732,253.384 191.398,253.051 190,252.5C 182.333,253.167 174.667,253.833 167,254.5C 153.009,253.355 139.009,252.355 125,251.5C 123.927,252.28 122.76,252.113 121.5,251C 118.183,250.502 114.85,250.335 111.5,250.5C 111.5,251.5 111.5,252.5 111.5,253.5C 109.821,253.285 108.821,253.952 108.5,255.5C 96.7907,253.562 86.624,248.562 78,240.5C 75.6754,237.258 75.3421,233.924 77,230.5C 77.3333,216.5 77.6667,202.5 78,188.5C 105.63,153.397 141.463,140.231 185.5,149C 190.464,150.371 195.131,152.204 199.5,154.5 Z"/></g>
<g><path style="opacity:1" fill="#182963" d="M 214.5,255.5 C 214.167,255.5 213.833,255.5 213.5,255.5C 195.69,258.1 177.69,259.767 159.5,260.5C 149.189,261.203 139.189,259.869 129.5,256.5C 122.532,255.503 115.532,255.17 108.5,255.5C 108.821,253.952 109.821,253.285 111.5,253.5C 111.5,252.5 111.5,251.5 111.5,250.5C 114.85,250.335 118.183,250.502 121.5,251C 122.76,252.113 123.927,252.28 125,251.5C 139.009,252.355 153.009,253.355 167,254.5C 174.667,253.833 182.333,253.167 190,252.5C 191.398,253.051 192.732,253.384 194,253.5C 200.082,251.484 206.249,249.651 212.5,248C 213.571,247.148 214.571,246.315 215.5,245.5C 215.833,245.5 216.167,245.5 216.5,245.5C 221.93,244.045 227.43,242.711 233,241.5C 234.059,241.63 234.892,242.13 235.5,243C 233.842,244.663 231.842,245.496 229.5,245.5C 229.863,247.911 228.863,249.411 226.5,250C 222.484,251.46 218.484,251.96 214.5,251.5C 213.637,252.726 213.637,254.06 214.5,255.5 Z"/></g>
<g><path style="opacity:1" fill="#1f2a4b" d="M 108.5,255.5 C 115.532,255.17 122.532,255.503 129.5,256.5C 139.189,259.869 149.189,261.203 159.5,260.5C 177.69,259.767 195.69,258.1 213.5,255.5C 196.428,259.941 178.928,261.941 161,261.5C 143.087,261.86 125.587,259.86 108.5,255.5 Z"/></g>
<g><path style="opacity:1" fill="#1f2a4e" d="M 280.5,159.5 C 279.348,177.426 279.181,195.426 280,213.5C 283.207,215.705 285.207,218.705 286,222.5C 286.667,234.833 286.667,247.167 286,259.5C 282.785,269.352 276.285,272.518 266.5,269C 262.976,266.792 260.809,263.625 260,259.5C 259.333,247.167 259.333,234.833 260,222.5C 260.793,218.705 262.793,215.705 266,213.5C 266.833,199.488 266.666,185.488 265.5,171.5C 263.466,172.559 261.466,173.559 259.5,174.5C 261.073,171.107 263.74,169.774 267.5,170.5C 267.667,185.17 267.5,199.837 267,214.5C 263.793,216.705 261.793,219.705 261,223.5C 260.333,235.167 260.333,246.833 261,258.5C 263.587,260.367 265.087,262.867 265.5,266C 269.833,266.667 274.167,266.667 278.5,266C 282.05,263.454 283.383,259.954 282.5,255.5C 283.5,255.5 284.5,255.5 285.5,255.5C 285.832,244.813 285.499,234.146 284.5,223.5C 282.446,220.617 280.612,217.617 279,214.5C 278.833,205.333 278.667,196.167 278.5,187C 278.502,177.475 279.168,168.308 280.5,159.5 Z"/></g>
</svg>
