<?xml version="1.0" standalone="no"?>
<!DOCTYPE svg PUBLIC "-//W3C//DTD SVG 20010904//EN"
 "http://www.w3.org/TR/2001/REC-SVG-20010904/DTD/svg10.dtd">
<svg version="1.0" xmlns="http://www.w3.org/2000/svg"
 width="175pt" height="65pt" viewBox="0 0 1024.000000 403.000000"
 preserveAspectRatio="xMidYMid meet">

<g transform="translate(0.000000,403.000000) scale(0.100000,-0.100000)"
fill="#000000" stroke="none">
<path d="M1105 2784 c-424 -212 -774 -389 -778 -393 -7 -7 614 -460 663 -484
14 -7 41 15 126 100 113 113 173 158 291 218 304 154 676 155 982 1 118 -59
190 -113 299 -222 56 -57 106 -104 110 -104 4 0 38 23 76 50 38 28 73 50 77
50 5 0 9 -94 9 -208 0 -201 -1 -210 -21 -228 -42 -37 -49 -73 -49 -258 0 -194
9 -235 58 -271 41 -30 122 -28 157 5 49 45 55 74 55 265 0 186 -7 222 -49 259
-20 19 -21 26 -21 280 l0 262 195 138 c108 77 192 142 188 147 -22 20 -1556
779 -1576 778 -12 0 -368 -174 -792 -385z"/>
<path d="M4290 2878 c-147 -23 -240 -154 -240 -335 0 -230 159 -374 370 -333
105 20 188 97 210 194 l8 36 -67 0 c-66 0 -68 -1 -82 -32 -32 -73 -143 -103
-216 -58 -55 33 -77 90 -77 195 0 105 22 162 77 195 79 49 200 7 223 -77 6
-21 12 -23 74 -23 l68 0 -10 43 c-31 139 -174 222 -338 195z"/>
<path d="M6309 2880 c-113 -19 -181 -94 -183 -200 -1 -104 64 -163 218 -194
108 -22 140 -42 144 -89 3 -32 -1 -39 -30 -57 -27 -17 -45 -20 -97 -17 -60 3
-67 6 -96 40 -31 35 -35 37 -94 37 -55 0 -61 -2 -61 -20 0 -26 32 -90 57 -112
10 -10 41 -27 68 -40 99 -44 266 -25 339 40 51 46 72 161 39 229 -23 49 -74
79 -178 103 -116 27 -143 38 -162 66 -18 28 -10 57 24 84 51 40 170 15 188
-39 6 -18 14 -21 72 -21 l66 0 -7 32 c-22 112 -160 183 -307 158z"/>
<path d="M7642 2879 c-159 -26 -252 -151 -252 -340 0 -175 96 -303 250 -329
156 -26 283 36 343 169 29 65 36 221 12 293 -49 155 -185 234 -353 207z m148
-141 c49 -33 74 -90 78 -175 8 -149 -54 -235 -169 -235 -93 0 -154 68 -166
185 -10 102 36 211 101 237 43 18 121 11 156 -12z"/>
<path d="M4965 2860 c-5 -8 -92 -255 -195 -557 l-29 -83 69 0 68 0 24 73 25
72 114 3 115 3 24 -76 24 -75 73 0 c40 0 73 2 73 4 0 3 -49 148 -110 322 -60
175 -110 319 -110 321 0 8 -160 2 -165 -7z m154 -367 c1 -10 -22 -13 -80 -13
-61 0 -80 3 -76 13 2 6 19 57 36 112 17 55 34 107 38 115 5 13 81 -195 82
-227z"/>
<path d="M5490 2545 l0 -325 70 0 70 0 0 100 0 100 81 0 c99 0 146 13 195 53
96 80 100 252 8 339 -51 47 -100 58 -270 58 l-154 0 0 -325z m260 206 c61 -12
90 -47 90 -110 0 -76 -50 -111 -162 -111 l-48 0 0 115 0 115 38 0 c20 -1 57
-5 82 -9z"/>
<path d="M6740 2810 l0 -60 95 0 95 0 0 -265 0 -265 70 0 70 0 0 265 0 265
100 0 100 0 0 60 0 60 -265 0 -265 0 0 -60z"/>
<path d="M8170 2545 l0 -325 65 0 65 0 2 202 3 203 150 -203 149 -202 58 0 58
0 0 325 0 325 -65 0 -65 0 0 -200 c0 -110 -3 -200 -7 -200 -5 1 -73 90 -153
200 l-145 199 -57 1 -58 0 0 -325z"/>
<path d="M8900 2545 l0 -325 215 0 215 0 0 60 0 60 -145 0 -145 0 0 75 0 75
135 0 135 0 0 55 0 55 -135 0 -135 0 0 75 0 75 145 0 145 0 0 60 0 60 -215 0
-215 0 0 -325z"/>
<path d="M1805 2254 c-98 -15 -199 -40 -264 -65 -146 -56 -311 -173 -414 -294
l-57 -67 0 -204 c0 -126 -4 -213 -11 -225 -15 -29 5 -82 47 -119 242 -212
1117 -246 1510 -59 64 31 133 91 135 118 1 9 0 120 -1 246 l-2 230 -25 34
c-69 90 -218 216 -334 280 -72 40 -202 88 -293 107 -74 16 -239 26 -291 18z
m318 -715 c224 -19 458 -85 516 -144 l26 -26 -30 -25 c-65 -53 -266 -111 -460
-135 -131 -15 -390 -15 -535 0 -146 16 -316 59 -403 102 -106 51 -106 69 0
123 182 91 550 135 886 105z"/>
<path d="M5899 1700 c-63 -11 -101 -32 -142 -80 -97 -113 -83 -332 26 -426 47
-40 97 -56 176 -55 99 0 172 42 217 124 27 48 29 60 29 157 0 97 -2 109 -29
157 -53 96 -157 143 -277 123z m121 -115 c97 -50 94 -277 -4 -330 -41 -22
-117 -16 -148 11 -79 71 -75 248 7 312 33 26 102 29 145 7z"/>
<path d="M7533 1700 c-82 -17 -141 -63 -177 -140 -30 -63 -29 -215 1 -280 42
-92 122 -141 228 -141 71 0 127 19 168 59 34 32 67 92 67 122 0 18 -6 20 -54
20 -51 0 -54 -2 -66 -31 -30 -71 -133 -92 -193 -39 -60 52 -75 175 -32 263 42
89 177 91 219 2 16 -34 19 -35 71 -35 63 0 67 8 36 75 -42 94 -156 147 -268
125z"/>
<path d="M8650 1703 c-129 -22 -202 -131 -154 -230 26 -51 71 -79 162 -99 110
-24 132 -37 132 -80 0 -73 -162 -85 -200 -14 -9 16 -21 20 -65 20 -61 0 -67
-9 -41 -58 20 -38 55 -68 100 -87 51 -21 161 -21 214 1 78 31 123 109 108 186
-14 72 -59 104 -186 132 -41 10 -85 24 -97 32 -51 32 -7 104 64 104 44 0 89
-23 96 -50 4 -17 13 -20 61 -20 31 0 56 4 56 9 0 46 -65 125 -114 140 -42 13
-106 20 -136 14z"/>
<path d="M4590 1420 l0 -270 60 0 60 0 0 85 0 85 80 0 c115 0 170 31 205 113
39 93 -8 212 -98 246 -16 6 -91 11 -168 11 l-139 0 0 -270z m232 170 c46 -13
68 -43 68 -90 -1 -62 -41 -90 -131 -90 l-49 0 0 95 0 95 38 0 c20 0 54 -5 74
-10z"/>
<path d="M5140 1421 l0 -271 60 0 60 0 0 95 0 95 48 0 47 0 48 -95 47 -95 66
0 66 0 -57 107 c-49 92 -55 107 -41 115 79 44 104 172 49 247 -47 61 -61 66
-234 69 l-159 4 0 -271z m282 151 c29 -28 30 -85 2 -113 -15 -15 -39 -21 -92
-26 l-72 -6 0 88 0 87 70 -4 c55 -3 75 -8 92 -26z"/>
<path d="M6560 1485 c0 -192 -1 -206 -20 -225 -37 -37 -120 -13 -120 35 0 12
-13 15 -55 15 -54 0 -55 -1 -55 -29 0 -33 33 -85 72 -114 52 -39 175 -38 228
2 14 10 34 33 45 52 18 31 20 56 23 252 l4 217 -61 0 -61 0 0 -205z"/>
<path d="M6840 1420 l0 -270 186 0 185 0 -3 48 -3 47 -122 3 -123 3 0 64 0 65
115 0 115 0 0 45 0 45 -115 0 -115 0 0 60 0 59 123 3 122 3 3 48 3 47 -185 0
-186 0 0 -270z"/>
<path d="M7922 1643 l3 -48 83 -3 82 -3 0 -219 0 -220 55 0 55 0 0 220 0 220
80 0 80 0 0 50 0 50 -221 0 -220 0 3 -47z"/>
<path d="M4190 1370 l0 -50 125 0 125 0 0 50 0 50 -125 0 -125 0 0 -50z"/>
<path d="M9040 1370 l0 -50 125 0 125 0 0 50 0 50 -125 0 -125 0 0 -50z"/>
</g>
</svg>
